<svg width="1022" height="638" viewBox="0 0 1022 638" fill="none" xmlns="http://www.w3.org/2000/svg">
<g clip-path="url(#clip0_12_50)">
<path opacity="0.1" d="M938.781 300.026C906.5 185.737 735.392 189.823 640.216 158.367C507.782 107.774 387.129 -11.525 238.886 0.900027C-43 24.531 -43.9 363.608 74.51 482.018C277.71 685.218 582.568 618.388 819.956 500.118C948.419 436.113 945.876 343.182 938.781 300.026Z" fill="white"/>
<path opacity="0.1" d="M938.781 300.026C906.5 185.737 735.392 189.823 640.216 158.367C507.782 107.774 387.129 -11.525 238.886 0.900027C-43 24.531 -43.9 363.608 74.51 482.018C277.71 685.218 582.568 618.388 819.956 500.118C948.419 436.113 945.876 343.182 938.781 300.026Z" fill="#367CFF"/>
<path d="M174.893 548.603L750.784 548.603C764.926 548.603 776.391 537.138 776.391 522.996V101.356C776.391 87.2137 764.926 75.749 750.784 75.749L174.893 75.749C160.751 75.749 149.286 87.2137 149.286 101.356V522.996C149.286 537.138 160.751 548.603 174.893 548.603Z" fill="white"/>
<path d="M148.431 523V101.355C148.44 94.3405 151.231 87.6161 156.192 82.6566C161.152 77.6972 167.878 74.9077 174.892 74.9H750.783C757.798 74.9077 764.524 77.6979 769.485 82.6584C774.446 87.6189 777.236 94.3447 777.244 101.36V523C777.236 530.015 774.446 536.741 769.485 541.702C764.524 546.663 757.799 549.453 750.783 549.461H174.892C167.877 549.453 161.151 546.663 156.19 541.702C151.229 536.741 148.439 530.015 148.431 523ZM174.892 76.6C168.329 76.6074 162.038 79.2177 157.397 83.8582C152.757 88.4987 150.146 94.7904 150.139 101.353V523C150.146 529.563 152.756 535.855 157.397 540.496C162.037 545.136 168.329 547.747 174.892 547.754H750.783C757.346 547.747 763.638 545.137 768.279 540.496C772.92 535.855 775.53 529.563 775.537 523V101.355C775.53 94.7919 772.92 88.4995 768.279 83.8586C763.638 79.2176 757.346 76.6072 750.783 76.6H174.892Z" fill="#292A2E"/>
<path d="M149.286 101.352V127.119H776.386V101.352C776.386 94.5608 773.688 88.0477 768.886 83.2455C764.084 78.4432 757.571 75.7453 750.78 75.745H174.893C168.102 75.745 161.588 78.4429 156.786 83.2451C151.984 88.0474 149.286 94.5606 149.286 101.352Z" fill="#0C0E13"/>
<path d="M492.814 287.441C480.583 290.111 469.763 279.825 464.254 269.999C457.771 258.438 455.101 244.955 446.983 234.273C439.698 224.862 429.092 218.591 417.335 216.743C411.997 215.806 406.528 215.923 401.235 217.088C398.774 217.7 396.371 218.524 394.051 219.549C384.013 223.928 375.902 231.833 369.6 240.643C362.147 251.059 357 263.079 353.47 275.348C349.487 289.448 347.454 304.027 347.428 318.678C347.317 334.222 349.398 349.705 353.609 364.668C357.962 380.246 364.906 394.981 374.149 408.254C384.036 422.28 396.53 434.271 410.949 443.574C418.936 448.707 427.406 453.044 436.24 456.522C446.814 460.538 457.983 462.764 469.288 463.109C493.988 464.179 519.065 458.42 541.412 448.034C546.923 445.475 552.276 442.588 557.442 439.389C559.08 438.374 557.575 435.777 555.928 436.798C534.759 449.858 510.803 457.731 486.014 459.774C474.407 460.824 462.709 460.188 451.284 457.885C441.507 455.654 432.083 452.09 423.277 447.292C407.943 439.291 394.323 428.366 383.186 415.133C373.018 402.864 365.078 388.909 359.726 373.9C354.537 359.389 351.489 344.2 350.677 328.81C349.84 314.246 350.97 299.635 354.037 285.373C356.668 272.6 361.299 260.324 367.76 248.996C373.246 239.653 380.449 230.953 389.639 225.258C393.707 222.641 398.215 220.782 402.946 219.772C414.261 217.472 426.667 220.937 435.909 227.594C440.672 231.077 444.66 235.51 447.621 240.614C450.981 246.298 453.312 252.494 455.77 258.599C458.155 264.521 460.619 270.53 464.355 275.75C467.785 280.755 472.323 284.902 477.616 287.869C482.483 290.577 488.159 291.452 493.616 290.336C495.501 289.925 494.703 287.036 492.816 287.444L492.814 287.441Z" fill="#367CFF"/>
<path d="M790.144 393.4C790.373 393.37 792.918 435.59 841.965 431.909C875.921 429.366 888.027 393.34 888.806 393.34C885.145 392.562 878.98 391.431 877.354 390.563C872.007 387.69 865.391 384.701 863.668 374.318C862.675 368.333 864.36 337.718 863.841 331.662L811.72 343.3C812.448 356.088 817.545 385.734 799.68 390.981C796.707 391.845 793.505 392.643 790.144 393.4Z" fill="#E98862"/>
<path opacity="0.52" d="M810.989 378.861C811.806 376.23 812.332 373.518 812.557 370.772C813.13 364.507 813.016 358.198 812.216 351.957C822.81 350.528 832.79 346.155 841.023 339.336C841.991 342.911 847.314 358.528 845.84 361.925C843.054 368.347 829.964 378.861 810.989 378.861Z" fill="#0C0C0C"/>
<path d="M793.135 286.927C793.135 286.927 780.8 272.959 782.345 246.9C783.54 226.724 799.04 243.108 799.04 243.108C799.04 243.108 800.04 228.59 810.052 232.089C820.064 235.588 822.81 251.613 822.81 251.613" fill="#0C0C0C"/>
<path d="M862.953 244.585C862.953 244.585 912.942 260.469 880.369 325.957L875.786 325.339L866.486 324.086" fill="#0C0C0C"/>
<path d="M818.348 365.283C838.865 367.583 865.574 359.757 871.49 332.477L876.828 307.862C882.744 280.582 873.212 255.362 847.528 249.789C821.842 244.219 797.847 262.17 791.928 289.45L789.565 300.35C788.818 304.106 788.329 307.908 788.1 311.73C787.42 321.83 786.424 337.188 791.038 348.656C795.4 359.479 805.24 363.817 818.348 365.283Z" fill="#E98862"/>
<path d="M799.136 302.028C800.93 302.028 802.384 300.574 802.384 298.78C802.384 296.986 800.93 295.532 799.136 295.532C797.342 295.532 795.888 296.986 795.888 298.78C795.888 300.574 797.342 302.028 799.136 302.028Z" fill="#0C0C0C"/>
<path d="M830.097 307.002C831.891 307.002 833.345 305.548 833.345 303.754C833.345 301.96 831.891 300.506 830.097 300.506C828.303 300.506 826.849 301.96 826.849 303.754C826.849 305.548 828.303 307.002 830.097 307.002Z" fill="#0C0C0C"/>
<path opacity="0.5" d="M817.344 340.04C813.097 339.687 808.992 338.341 805.361 336.111C805.282 336.068 805.213 336.01 805.158 335.941C805.102 335.871 805.061 335.79 805.037 335.704C805.013 335.618 805.006 335.528 805.018 335.439C805.03 335.351 805.059 335.265 805.104 335.188C805.149 335.111 805.21 335.044 805.281 334.991C805.353 334.938 805.435 334.899 805.522 334.878C805.609 334.857 805.699 334.854 805.787 334.869C805.875 334.883 805.959 334.915 806.035 334.963C813.884 339.575 821.492 340.028 828.035 336.273C828.167 336.194 828.304 336.121 828.444 336.055C828.606 335.995 828.784 336 828.942 336.069C829.101 336.137 829.226 336.265 829.292 336.424C829.358 336.584 829.359 336.763 829.296 336.923C829.233 337.084 829.11 337.213 828.953 337.285C828.902 337.309 828.816 337.36 828.698 337.428C825.257 339.409 821.304 340.319 817.344 340.04Z" fill="#0C0C0C"/>
<path opacity="0.52" d="M816.736 346.323C815.967 346.271 815.203 346.154 814.454 345.973C814.282 345.932 814.134 345.825 814.042 345.674C813.949 345.524 813.921 345.343 813.962 345.172C814.003 345 814.11 344.852 814.26 344.759C814.411 344.667 814.591 344.638 814.763 344.679C819.271 345.753 821.722 343.94 821.825 343.862C821.965 343.754 822.142 343.706 822.317 343.729C822.492 343.751 822.651 343.842 822.759 343.982C822.866 344.121 822.915 344.298 822.892 344.473C822.87 344.648 822.779 344.807 822.639 344.915C820.893 346.052 818.807 346.549 816.736 346.323Z" fill="#0C0C0C"/>
<path d="M868.092 340.442C875.898 342.135 884.037 335.157 885.73 327.351C887.423 319.545 882.03 313.868 874.222 312.175L869.066 316.533L861.381 338.987L868.092 340.442Z" fill="#E98862"/>
<path d="M862.867 326.282C862.867 326.282 868.103 287.042 856.854 282.263C849.363 279.08 828.154 286.308 811.278 279.385C803.896 276.357 796.217 276.773 794.737 280.25C794.151 281.627 793.569 260.01 808.786 246.792C820.901 236.268 852.956 239.127 866.38 246.119C903.552 265.482 875.489 314.209 875.489 314.209L871.012 327.193L862.867 326.282Z" fill="#0C0C0C"/>
<g opacity="0.52">
<path d="M810.613 328.877C810.595 328.877 810.579 328.877 810.563 328.868C808.046 328.329 803.884 327.145 804.285 325.261C804.621 323.702 812.496 307.776 813.394 305.961C813.43 305.881 813.483 305.809 813.547 305.749C813.612 305.69 813.688 305.644 813.771 305.614C813.854 305.585 813.942 305.572 814.03 305.577C814.118 305.582 814.204 305.605 814.283 305.644C814.362 305.683 814.432 305.738 814.489 305.805C814.546 305.871 814.59 305.949 814.617 306.033C814.643 306.117 814.653 306.205 814.645 306.293C814.637 306.38 814.611 306.466 814.569 306.543C811.075 313.595 805.796 324.471 805.569 325.531C805.722 326.031 808.233 327.023 810.838 327.581C811.002 327.618 811.145 327.717 811.238 327.857C811.331 327.997 811.367 328.167 811.338 328.332C811.31 328.498 811.219 328.646 811.084 328.746C810.95 328.847 810.782 328.892 810.615 328.872L810.613 328.877Z" fill="#0C0C0C"/>
</g>
<path d="M810.2 288.984C807.73 287.725 804.966 287.155 802.2 287.335C800.84 287.415 799.5 287.698 798.225 288.175C796.964 288.642 795.766 289.267 794.661 290.033C794.48 290.151 794.352 290.335 794.304 290.546C794.256 290.757 794.293 290.979 794.405 291.163C794.518 291.348 794.698 291.481 794.907 291.535C795.117 291.59 795.339 291.56 795.527 291.453L795.585 291.421C796.598 290.798 797.686 290.305 798.822 289.953C799.942 289.601 801.109 289.42 802.283 289.417C804.604 289.393 806.89 289.983 808.91 291.126L808.986 291.171C809.271 291.34 809.612 291.389 809.934 291.307C810.255 291.224 810.531 291.018 810.7 290.732C810.869 290.447 810.918 290.106 810.835 289.784C810.753 289.463 810.546 289.187 810.261 289.018L810.2 288.984Z" fill="#0C0C0C"/>
<path d="M828.685 294.064C830.935 293.495 833.296 293.532 835.528 294.171C836.659 294.485 837.736 294.969 838.723 295.605C839.726 296.245 840.644 297.008 841.456 297.877L841.501 297.922C841.654 298.073 841.86 298.159 842.075 298.161C842.29 298.164 842.498 298.083 842.655 297.936C842.812 297.789 842.906 297.586 842.917 297.371C842.928 297.157 842.856 296.946 842.715 296.783C841.852 295.751 840.862 294.832 839.769 294.048C838.666 293.25 837.449 292.622 836.159 292.185C833.539 291.28 830.723 291.098 828.008 291.657C827.689 291.732 827.413 291.929 827.237 292.206C827.062 292.482 827.003 292.817 827.071 293.137C827.14 293.457 827.331 293.738 827.604 293.918C827.877 294.099 828.21 294.165 828.532 294.103L828.595 294.088L828.685 294.064Z" fill="#0C0C0C"/>
<path d="M835.896 252.496C839.414 244.332 837.769 235.777 832.222 233.388C826.676 230.998 819.329 235.679 815.811 243.842C812.294 252.006 813.939 260.561 819.485 262.951C825.031 265.34 832.379 260.66 835.896 252.496Z" fill="#0C0C0C"/>
<path d="M842.939 421.382C877.031 419.775 878.466 390.838 878.466 390.838C878.466 390.838 895.358 391.93 906.587 393.45C924.972 395.937 937.1 402.171 946.751 411.822C955.729 420.8 961.195 430.514 955.411 492.533C951.223 537.433 954.171 636.212 954.171 636.212H748.42C748.42 636.212 736.082 506.747 734.362 486.533C731.08 447.943 728.415 414.326 736.426 406.315C752.897 389.844 785.226 390.838 799.384 390.841C799.615 390.841 796.512 423.57 842.939 421.382Z" fill="#586A89"/>
<path d="M786.572 560.82L756.643 544.167C755.985 543.801 755.259 543.576 754.509 543.507C753.76 543.437 753.004 543.524 752.29 543.763C751.577 544.001 750.92 544.386 750.363 544.892C749.806 545.398 749.361 546.014 749.055 546.702C748.53 547.989 748.501 549.425 748.975 550.732C749.448 552.039 750.39 553.123 751.618 553.775L758.036 557.345L732.7 555.38C729.887 555.112 726.264 556.58 726.172 559.758C726.057 560.978 726.358 562.2 727.027 563.227C727.696 564.253 728.693 565.022 729.855 565.409C729.846 565.435 729.839 565.462 729.836 565.489C729.837 565.51 729.839 565.531 729.843 565.551L725.505 565.138C724.702 565.063 723.891 565.167 723.134 565.444C722.376 565.721 721.689 566.164 721.124 566.74C720.559 567.316 720.129 568.01 719.866 568.773C719.604 569.536 719.514 570.348 719.605 571.15C719.773 572.411 720.369 573.575 721.293 574.449C722.217 575.323 723.413 575.853 724.681 575.95L726.527 576.126C726.547 576.182 726.576 576.233 726.613 576.279C725.338 576.449 724.165 577.067 723.304 578.023C722.443 578.978 721.95 580.209 721.913 581.495C721.914 582.903 722.446 584.259 723.403 585.291C724.36 586.324 725.671 586.958 727.075 587.066L731.66 587.502C731.591 587.542 731.532 587.597 731.488 587.664C731.445 587.731 731.418 587.807 731.41 587.886C731.405 587.981 731.427 588.074 731.475 588.156C730.382 588.624 729.473 589.437 728.887 590.472C728.302 591.506 728.072 592.704 728.234 593.882C728.429 595.116 729.035 596.247 729.953 597.093C730.872 597.939 732.049 598.451 733.294 598.545L771.98 602.225C777.392 602.739 782.834 601.626 787.608 599.027C792.383 596.429 796.273 592.464 798.78 587.64C800.942 583.481 801.396 578.642 800.047 574.153C798.698 569.663 795.651 565.877 791.555 563.598L786.572 560.82Z" fill="#E98862"/>
<g opacity="0.2">
<path d="M754.923 567.479C754.91 567.609 754.846 567.729 754.746 567.813C754.645 567.896 754.516 567.937 754.386 567.927L730.294 566.027C730.228 566.022 730.164 566.004 730.106 565.974C730.047 565.944 729.995 565.903 729.952 565.853C729.909 565.803 729.877 565.745 729.856 565.682C729.836 565.619 729.828 565.553 729.833 565.488C729.839 565.422 729.857 565.358 729.887 565.299C729.917 565.241 729.958 565.188 730.008 565.146C730.058 565.103 730.116 565.07 730.179 565.05C730.241 565.03 730.307 565.022 730.373 565.027L754.465 566.927C754.53 566.932 754.594 566.95 754.653 566.98C754.711 567.01 754.763 567.051 754.806 567.101C754.849 567.151 754.881 567.209 754.901 567.271C754.921 567.334 754.929 567.4 754.924 567.465L754.923 567.479Z" fill="#0C0C0C"/>
<path d="M754.378 578.128C754.365 578.258 754.301 578.377 754.201 578.461C754.1 578.545 753.971 578.585 753.841 578.575L726.954 576.455C726.888 576.45 726.825 576.432 726.766 576.402C726.708 576.372 726.656 576.331 726.613 576.281C726.57 576.231 726.538 576.173 726.518 576.111C726.498 576.048 726.49 575.983 726.495 575.917C726.509 575.786 726.573 575.666 726.673 575.581C726.773 575.496 726.902 575.452 727.033 575.458L753.92 577.578C753.985 577.583 754.049 577.601 754.108 577.631C754.166 577.661 754.218 577.702 754.261 577.752C754.304 577.802 754.336 577.86 754.356 577.922C754.376 577.985 754.384 578.051 754.379 578.116L754.378 578.128Z" fill="#0C0C0C"/>
<path d="M753.854 589.664C753.841 589.794 753.777 589.914 753.677 589.998C753.577 590.081 753.447 590.122 753.317 590.112L731.87 588.421C731.737 588.411 731.614 588.348 731.528 588.247C731.442 588.146 731.399 588.014 731.41 587.882C731.42 587.749 731.483 587.626 731.584 587.54C731.685 587.453 731.816 587.411 731.949 587.421L753.396 589.112C753.461 589.117 753.525 589.135 753.584 589.165C753.642 589.195 753.694 589.236 753.737 589.286C753.78 589.336 753.812 589.394 753.832 589.456C753.853 589.519 753.86 589.585 753.855 589.65L753.854 589.664Z" fill="#0C0C0C"/>
</g>
<path d="M769.576 614.517L956.414 635.492C962.174 636.119 968.001 635.403 973.438 633.399C978.874 631.396 983.773 628.16 987.749 623.946C991.725 619.731 994.67 614.652 996.353 609.108C998.037 603.564 998.413 597.706 997.452 591.992L957.61 432.392C956.793 427.536 955.027 422.888 952.414 418.714C949.801 414.54 946.391 410.921 942.379 408.065C934.277 402.297 924.216 399.983 914.408 401.633C904.6 403.283 895.849 408.762 890.081 416.864C884.313 424.966 881.999 435.027 883.649 444.835L914.205 561.07L778.441 547.521L769.576 614.517Z" fill="#586A89"/>
<path d="M938.559 564.558C938.692 564.568 938.823 564.525 938.923 564.438C939.024 564.351 939.086 564.228 939.096 564.095C939.106 563.962 939.062 563.831 938.976 563.731C938.889 563.63 938.766 563.568 938.633 563.558L915.345 560.071C915.28 560.06 915.213 560.063 915.149 560.078C915.085 560.094 915.025 560.122 914.972 560.161C914.919 560.2 914.874 560.25 914.841 560.306C914.807 560.363 914.785 560.426 914.776 560.491C914.756 560.622 914.79 560.755 914.868 560.862C914.947 560.968 915.065 561.039 915.196 561.059L938.485 564.547C938.509 564.553 938.534 564.556 938.559 564.558Z" fill="#0C0C0C"/>
<path d="M951.213 636.212C951.346 636.221 951.476 636.176 951.576 636.088C951.676 636.001 951.737 635.877 951.745 635.744C951.754 635.612 951.709 635.481 951.621 635.381C951.533 635.281 951.41 635.221 951.277 635.212L770.623 614.138L779.38 548.138L914.205 561.066C914.282 561.076 914.361 561.067 914.435 561.042C914.508 561.016 914.575 560.974 914.63 560.918C914.685 560.862 914.725 560.794 914.748 560.719C914.772 560.644 914.777 560.564 914.764 560.487L900.174 492.546C900.164 492.481 900.141 492.418 900.107 492.362C900.072 492.306 900.027 492.257 899.973 492.219C899.919 492.181 899.858 492.154 899.794 492.14C899.73 492.125 899.663 492.124 899.598 492.136C899.467 492.158 899.351 492.231 899.274 492.339C899.197 492.447 899.166 492.581 899.188 492.712L913.665 559.985L779 547.078C778.934 547.069 778.867 547.074 778.802 547.092C778.738 547.109 778.678 547.14 778.625 547.181C778.573 547.222 778.529 547.274 778.497 547.332C778.464 547.39 778.444 547.455 778.437 547.521L769.572 614.521C769.558 614.651 769.595 614.781 769.676 614.884C769.757 614.987 769.874 615.054 770.004 615.071L951.143 636.212C951.166 636.214 951.19 636.214 951.213 636.212Z" fill="#0C0C0C"/>
<path d="M567.167 291.567C566.933 290.869 566.56 290.225 566.07 289.676C565.58 289.127 564.983 288.683 564.315 288.373C563.648 288.062 562.924 287.89 562.188 287.868C561.452 287.846 560.72 287.974 560.035 288.245C558.728 288.814 557.686 289.859 557.119 291.167C556.553 292.476 556.505 293.95 556.984 295.293L559.304 302.234L541.929 283.69C540.029 281.59 536.366 280.235 534.156 282.517C533.249 283.339 532.648 284.445 532.45 285.653C532.252 286.861 532.47 288.1 533.067 289.169C533.041 289.183 533.016 289.199 532.994 289.218C532.981 289.234 532.969 289.251 532.958 289.269L532.863 289.16C532.324 288.565 531.66 288.097 530.918 287.79C530.177 287.482 529.376 287.344 528.575 287.383C527.773 287.423 526.99 287.64 526.282 288.018C525.575 288.397 524.96 288.928 524.482 289.573C523.742 290.617 523.385 291.885 523.472 293.162C523.56 294.439 524.086 295.646 524.961 296.58L525.917 297.668C525.893 297.724 525.879 297.783 525.876 297.844C524.846 297.163 523.604 296.879 522.381 297.048C521.157 297.216 520.037 297.824 519.23 298.758C518.261 299.804 517.725 301.179 517.731 302.605C517.738 304.03 518.285 305.401 519.263 306.438C519.111 306.407 519.176 306.697 519.049 306.811C518.981 306.877 518.934 306.962 518.915 307.055C517.823 306.673 516.638 306.65 515.532 306.99C514.427 307.329 513.459 308.014 512.77 308.943C512.03 309.987 511.673 311.255 511.76 312.532C511.847 313.809 512.373 315.016 513.248 315.95L539.32 344.767C542.967 348.798 547.735 351.649 553.013 352.953C558.291 354.256 563.838 353.954 568.943 352.085L585.38 346.066L567.167 291.567Z" fill="#E98862"/>
<path opacity="0.2" d="M520.905 324.675C521.869 325.704 523.176 326.344 524.58 326.475C524.761 326.493 524.944 326.502 525.128 326.502C526.021 326.514 526.904 326.315 527.706 325.923C528.508 325.531 529.207 324.955 529.746 324.244C530.285 323.532 530.65 322.703 530.81 321.825C530.97 320.946 530.921 320.042 530.668 319.186C531.484 319.739 532.424 320.08 533.405 320.178C533.592 320.195 533.781 320.204 533.971 320.205C534.901 320.216 535.82 320.007 536.653 319.594C537.487 319.18 538.21 318.575 538.763 317.828C539.317 317.081 539.685 316.213 539.838 315.295C539.99 314.378 539.923 313.437 539.641 312.551C540.416 313.043 541.296 313.347 542.209 313.44C542.396 313.458 542.585 313.467 542.775 313.467C543.592 313.472 544.401 313.309 545.152 312.988C545.903 312.668 546.58 312.196 547.141 311.602C548.184 310.424 548.744 308.895 548.708 307.322C548.672 305.748 548.043 304.247 546.948 303.117L535.39 290.675C535.346 290.625 535.292 290.585 535.232 290.557C535.172 290.528 535.107 290.512 535.04 290.509C534.974 290.506 534.907 290.516 534.845 290.539C534.782 290.562 534.725 290.597 534.677 290.642C534.628 290.687 534.589 290.742 534.561 290.803C534.534 290.863 534.519 290.929 534.517 290.995C534.515 291.062 534.527 291.128 534.551 291.19C534.575 291.252 534.612 291.308 534.658 291.356L546.218 303.802C547.141 304.744 547.674 306 547.711 307.318C547.749 308.637 547.287 309.92 546.418 310.913C545.949 311.406 545.385 311.798 544.76 312.065C544.134 312.332 543.461 312.469 542.781 312.468C542.101 312.467 541.429 312.327 540.805 312.057C540.18 311.787 539.618 311.393 539.151 310.898C539.066 310.808 538.412 310.141 538.151 309.864L526.887 297.549C526.799 297.45 526.675 297.39 526.542 297.382C526.41 297.375 526.28 297.42 526.181 297.508C526.082 297.596 526.022 297.72 526.014 297.853C526.007 297.985 526.052 298.115 526.14 298.214L537.414 310.54C538.337 311.482 538.87 312.738 538.907 314.056C538.944 315.375 538.483 316.658 537.614 317.651C537.146 318.143 536.582 318.535 535.957 318.802C535.332 319.07 534.66 319.207 533.98 319.206C533.301 319.205 532.629 319.066 532.005 318.797C531.381 318.528 530.818 318.134 530.351 317.641L519.892 306.547C519.802 306.453 519.679 306.398 519.549 306.394C519.418 306.389 519.292 306.436 519.195 306.523C519.099 306.611 519.041 306.733 519.033 306.862C519.024 306.992 519.067 307.12 519.152 307.219L528.452 317.14C529.343 318.049 529.858 319.261 529.893 320.534C529.929 321.806 529.483 323.045 528.645 324.003C528.193 324.478 527.649 324.856 527.047 325.114C526.444 325.372 525.795 325.504 525.14 325.503C524.484 325.502 523.836 325.368 523.234 325.109C522.632 324.849 522.089 324.47 521.638 323.994L520.905 324.675Z" fill="#0C0C0C"/>
<path d="M542.73 295.138C541.561 295.14 540.438 294.685 539.6 293.871C536.472 290.842 532.788 287.755 531.716 287.264C527.209 285.248 520.38 284.252 518.129 284.038C517.535 283.989 516.957 283.823 516.427 283.55C515.898 283.276 515.429 282.9 515.046 282.443C514.663 281.986 514.375 281.458 514.198 280.889C514.021 280.32 513.959 279.721 514.016 279.128C514.072 278.535 514.245 277.959 514.526 277.433C514.807 276.907 515.189 276.443 515.651 276.066C516.113 275.689 516.645 275.408 517.216 275.239C517.787 275.069 518.387 275.015 518.979 275.079C519.37 275.116 528.624 276.021 535.393 279.049C538.572 280.472 544.21 285.806 545.862 287.407C546.505 288.031 546.948 288.832 547.133 289.709C547.318 290.585 547.237 291.497 546.901 292.328C546.564 293.158 545.987 293.869 545.244 294.37C544.501 294.871 543.626 295.138 542.73 295.138Z" fill="#E98862"/>
<path d="M491.907 294.532L493.316 281.401L592.296 290.711L590.886 303.841L491.907 294.532Z" fill="#367CFF"/>
<path opacity="0.5" d="M491.907 294.532L493.316 281.401L592.296 290.711L590.886 303.841L491.907 294.532Z" fill="white"/>
<path d="M601.774 304.978L603.183 291.848L592.296 290.711L590.886 303.841L601.774 304.978Z" fill="#262626"/>
<path d="M491.907 294.532C491.907 294.532 488.634 292.224 485.707 290.148C483.388 288.502 481.288 287.001 481.215 286.913C482.865 285.999 484.568 285.186 486.315 284.477C489.615 283 493.315 281.401 493.315 281.401L491.907 294.532Z" fill="#367CFF"/>
<path opacity="0.9" d="M491.907 294.532C491.907 294.532 488.634 292.224 485.707 290.148C483.388 288.502 481.288 287.001 481.215 286.913C482.865 285.999 484.568 285.186 486.315 284.477C489.615 283 493.315 281.401 493.315 281.401L491.907 294.532Z" fill="white"/>
<path d="M485.71 290.148C483.391 288.502 481.291 287.001 481.218 286.913C482.868 285.999 484.571 285.186 486.318 284.477L485.71 290.148Z" fill="#262626"/>
<path d="M492.374 290.446L591.331 299.518L591.269 300.117L492.312 291.046L492.374 290.446Z" fill="white"/>
<path d="M492.923 285.309L591.88 294.38L591.818 294.98L492.861 285.908L492.923 285.309Z" fill="white"/>
<path d="M560.063 304.816L556.984 295.293C556.505 293.95 556.553 292.476 557.12 291.167C557.686 289.859 558.728 288.814 560.035 288.245C560.72 287.974 561.452 287.846 562.188 287.868C562.924 287.89 563.648 288.062 564.315 288.373C564.983 288.683 565.58 289.127 566.07 289.676C566.56 290.225 566.934 290.869 567.167 291.567L572.546 307.667" fill="#E98862"/>
<path d="M630.055 508.332C623.296 508.33 616.663 506.502 610.857 503.041C605.052 499.58 600.289 494.615 597.073 488.67L522.473 346.057L584.44 312.372L648.712 426.5L758.773 394.462L776.39 468.283L640.357 506.883C637.007 507.843 633.54 508.331 630.055 508.332Z" fill="#586A89"/>
<path d="M733.826 480.686C733.703 480.687 733.584 480.642 733.492 480.561C733.4 480.48 733.34 480.367 733.326 480.245L730.333 454.73C730.325 454.665 730.33 454.599 730.348 454.535C730.366 454.472 730.396 454.413 730.437 454.361C730.477 454.31 730.528 454.266 730.585 454.234C730.643 454.202 730.706 454.182 730.771 454.174C730.902 454.16 731.034 454.199 731.138 454.281C731.241 454.363 731.309 454.482 731.326 454.613L734.319 480.127C734.327 480.192 734.322 480.259 734.304 480.322C734.286 480.385 734.256 480.445 734.215 480.496C734.174 480.548 734.124 480.591 734.066 480.623C734.009 480.655 733.945 480.676 733.88 480.683C733.862 480.685 733.844 480.686 733.826 480.686Z" fill="#0C0C0C"/>
<path d="M270.923 153.078H187.827C181.598 153.078 176.549 158.127 176.549 164.356V505.146C176.549 511.375 181.598 516.424 187.827 516.424H270.923C277.152 516.424 282.201 511.375 282.201 505.146V164.356C282.201 158.127 277.152 153.078 270.923 153.078Z" fill="#0C0E13"/>
<path d="M174.659 617C174.827 617 174.992 616.954 175.134 616.865C175.277 616.777 175.392 616.65 175.467 616.5L199.152 567.922C199.237 567.711 199.239 567.475 199.158 567.262C199.076 567.049 198.917 566.876 198.712 566.776C198.507 566.676 198.272 566.657 198.054 566.724C197.836 566.791 197.652 566.938 197.538 567.135L173.853 615.713C173.787 615.85 173.757 616.001 173.765 616.153C173.773 616.305 173.82 616.452 173.9 616.581C173.981 616.71 174.092 616.816 174.225 616.89C174.358 616.964 174.507 617.003 174.659 617.004V617Z" fill="#292A2E"/>
<path d="M134.623 614.183C134.821 614.183 135.014 614.117 135.171 613.996C135.329 613.875 135.441 613.705 135.492 613.513L162.9 508.879C162.942 508.655 162.898 508.424 162.776 508.231C162.654 508.039 162.464 507.899 162.244 507.842C162.023 507.784 161.789 507.812 161.589 507.92C161.388 508.028 161.236 508.208 161.163 508.424L133.754 613.058C133.72 613.191 133.716 613.33 133.744 613.464C133.771 613.598 133.829 613.725 133.913 613.833C133.997 613.942 134.105 614.03 134.228 614.09C134.351 614.151 134.486 614.183 134.623 614.183Z" fill="#292A2E"/>
<path d="M82.343 618.814C82.4633 618.814 82.5824 618.79 82.693 618.742C82.9118 618.649 83.0847 618.472 83.1739 618.252C83.2631 618.031 83.2613 617.784 83.169 617.565L54.838 550.843C54.7342 550.641 54.5578 550.486 54.3442 550.408C54.1306 550.331 53.8956 550.337 53.6864 550.425C53.4771 550.514 53.3092 550.678 53.2162 550.886C53.1232 551.093 53.112 551.328 53.185 551.543L81.516 618.266C81.585 618.428 81.7001 618.567 81.8471 618.664C81.9942 618.762 82.1666 618.814 82.343 618.814Z" fill="#292A2E"/>
<path d="M133.607 634.274C133.681 634.274 133.754 634.265 133.826 634.247C134.057 634.189 134.255 634.041 134.377 633.837C134.5 633.633 134.536 633.389 134.479 633.158L101.559 501.458C101.49 501.239 101.34 501.055 101.14 500.943C100.94 500.831 100.705 500.8 100.482 500.856C100.26 500.911 100.067 501.05 99.9433 501.243C99.8195 501.436 99.7739 501.669 99.816 501.894L132.737 633.594C132.786 633.788 132.898 633.96 133.055 634.083C133.213 634.206 133.407 634.273 133.607 634.274Z" fill="#292A2E"/>
<path d="M121.93 528.445C130.862 509.668 125.034 488.229 108.913 480.56C92.791 472.892 72.4812 481.896 63.5492 500.673C54.6173 519.45 60.4456 540.888 76.5671 548.557C92.6887 556.226 112.999 547.221 121.93 528.445Z" fill="#0CBC8B"/>
<path opacity="0.4" d="M121.93 528.445C130.862 509.668 125.034 488.229 108.913 480.56C92.791 472.892 72.4812 481.896 63.5492 500.673C54.6173 519.45 60.4456 540.888 76.5671 548.557C92.6887 556.226 112.999 547.221 121.93 528.445Z" fill="white"/>
<path d="M66.523 571.796C71.1819 560.228 67.1003 547.686 57.4067 543.782C47.713 539.877 36.078 546.09 31.4191 557.658C26.7603 569.225 30.8418 581.768 40.5355 585.672C50.2292 589.576 61.8642 583.363 66.523 571.796Z" fill="#0CBC8B"/>
<path d="M180.752 556.952C195.151 552.585 202.478 534.718 197.118 517.046C191.758 499.373 175.74 488.588 161.341 492.955C146.941 497.323 139.614 515.189 144.974 532.862C150.334 550.534 166.352 561.32 180.752 556.952Z" fill="#0CBC8B"/>
<path d="M205.516 594.561C213.554 593.215 218.534 582.952 216.639 571.639C214.744 560.325 206.692 552.245 198.654 553.592C190.616 554.938 185.636 565.201 187.531 576.514C189.426 587.827 197.478 595.907 205.516 594.561Z" fill="#0CBC8B"/>
<path d="M55.919 635.509H195.76V600.661H55.919V635.509Z" fill="#292A2E"/>
<path opacity="0.3" d="M55.919 635.509H195.76V600.661H55.919V635.509Z" fill="white"/>
<path d="M122.198 591.903C127.881 577.791 122.858 562.472 110.978 557.688C99.0974 552.903 84.8592 560.464 79.1758 574.576C73.4923 588.688 78.5157 604.006 90.3959 608.791C102.276 613.576 116.514 606.014 122.198 591.903Z" fill="#0CBC8B"/>
<path d="M153.236 605.294C165.068 605.294 174.66 595.702 174.66 583.87C174.66 572.038 165.068 562.446 153.236 562.446C141.404 562.446 131.812 572.038 131.812 583.87C131.812 595.702 141.404 605.294 153.236 605.294Z" fill="#0CBC8B"/>
<path opacity="0.68" d="M66.523 571.796C71.1819 560.228 67.1003 547.686 57.4067 543.782C47.713 539.877 36.078 546.09 31.4191 557.658C26.7603 569.225 30.8418 581.768 40.5355 585.672C50.2292 589.576 61.8642 583.363 66.523 571.796Z" fill="white"/>
<path opacity="0.68" d="M180.752 556.952C195.151 552.585 202.478 534.718 197.118 517.046C191.758 499.373 175.74 488.588 161.341 492.955C146.941 497.323 139.614 515.189 144.974 532.862C150.334 550.534 166.352 561.32 180.752 556.952Z" fill="white"/>
<path opacity="0.68" d="M205.516 594.561C213.554 593.215 218.534 582.952 216.639 571.639C214.744 560.325 206.692 552.245 198.654 553.592C190.616 554.938 185.636 565.201 187.531 576.514C189.426 587.827 197.478 595.907 205.516 594.561Z" fill="white"/>
<path opacity="0.68" d="M122.198 591.903C127.881 577.791 122.858 562.472 110.978 557.688C99.0974 552.903 84.8592 560.464 79.1758 574.576C73.4923 588.688 78.5157 604.006 90.3959 608.791C102.276 613.576 116.514 606.014 122.198 591.903Z" fill="white"/>
<path opacity="0.4" d="M153.236 605.294C165.068 605.294 174.66 595.702 174.66 583.87C174.66 572.038 165.068 562.446 153.236 562.446C141.404 562.446 131.812 572.038 131.812 583.87C131.812 595.702 141.404 605.294 153.236 605.294Z" fill="white"/>
<path d="M84.422 565.834C100.683 570.377 109.241 557.088 109.241 557.088L109.232 557.07C100.558 554.484 90.941 558.121 84.422 565.834Z" fill="#292A2E"/>
<path d="M187.135 571.275C195.14 568.21 201.774 562.364 205.821 554.807C203.628 553.636 201.113 553.211 198.656 553.595C191.885 554.727 187.288 562.188 187.135 571.275Z" fill="#292A2E"/>
<path d="M149.414 562.79C155.65 568.408 163.442 572.005 171.763 573.107C169.547 569.301 166.214 566.27 162.215 564.424C158.217 562.579 153.748 562.008 149.414 562.79Z" fill="#292A2E"/>
<path d="M1 637.212H1020.65C1020.91 637.212 1021.17 637.107 1021.35 636.919C1021.54 636.732 1021.65 636.477 1021.65 636.212C1021.65 635.947 1021.54 635.692 1021.35 635.505C1021.17 635.317 1020.91 635.212 1020.65 635.212H1C0.734784 635.212 0.48043 635.317 0.292893 635.505C0.105357 635.692 0 635.947 0 636.212C0 636.477 0.105357 636.732 0.292893 636.919C0.48043 637.107 0.734784 637.212 1 637.212Z" fill="#292A2E"/>
<path d="M214.112 232.874H196.21C193.738 232.874 191.734 234.878 191.734 237.35V255.252C191.734 257.724 193.738 259.728 196.21 259.728H214.112C216.584 259.728 218.588 257.724 218.588 255.252V237.35C218.588 234.878 216.584 232.874 214.112 232.874Z" fill="#292A2E"/>
<path d="M214.112 260.228H196.212C194.893 260.227 193.628 259.702 192.695 258.77C191.762 257.837 191.238 256.572 191.236 255.253V237.353C191.237 236.034 191.762 234.769 192.695 233.836C193.628 232.903 194.893 232.378 196.212 232.377H214.112C215.431 232.378 216.696 232.903 217.629 233.836C218.562 234.769 219.087 236.034 219.088 237.353V255.253C219.086 256.572 218.562 257.837 217.629 258.77C216.696 259.702 215.431 260.227 214.112 260.228ZM196.212 233.374C195.158 233.375 194.147 233.794 193.402 234.54C192.656 235.285 192.237 236.296 192.236 237.35V255.25C192.237 256.304 192.656 257.315 193.402 258.06C194.147 258.805 195.158 259.224 196.212 259.225H214.112C215.166 259.224 216.177 258.805 216.922 258.06C217.668 257.315 218.087 256.304 218.088 255.25V237.35C218.087 236.296 217.668 235.285 216.922 234.54C216.177 233.794 215.166 233.375 214.112 233.374H196.212Z" fill="white"/>
<path d="M263.09 245.813C263.09 238.397 257.078 232.386 249.663 232.386C242.247 232.386 236.236 238.397 236.236 245.813C236.236 253.229 242.247 259.24 249.663 259.24C257.078 259.24 263.09 253.229 263.09 245.813Z" fill="#292A2E"/>
<path d="M249.663 259.74C246.908 259.74 244.216 258.923 241.926 257.393C239.635 255.863 237.85 253.687 236.796 251.143C235.742 248.598 235.466 245.798 236.004 243.096C236.541 240.394 237.867 237.913 239.815 235.965C241.763 234.017 244.244 232.691 246.946 232.154C249.648 231.616 252.448 231.892 254.993 232.946C257.537 234 259.713 235.785 261.243 238.076C262.773 240.366 263.59 243.058 263.59 245.813C263.586 249.505 262.117 253.045 259.506 255.656C256.895 258.267 253.355 259.736 249.663 259.74ZM249.663 232.886C247.106 232.886 244.607 233.644 242.481 235.065C240.355 236.485 238.698 238.504 237.72 240.866C236.742 243.228 236.486 245.827 236.984 248.335C237.483 250.843 238.714 253.146 240.522 254.954C242.33 256.762 244.633 257.993 247.141 258.492C249.649 258.99 252.248 258.734 254.61 257.756C256.972 256.778 258.991 255.121 260.411 252.995C261.832 250.869 262.59 248.37 262.59 245.813C262.586 242.386 261.223 239.1 258.799 236.677C256.376 234.253 253.09 232.89 249.663 232.886Z" fill="white"/>
<path d="M195.123 171.238L194.721 207.295L205.731 197.183L219.9 197.436L195.123 171.238Z" fill="#292A2E"/>
<path d="M194.721 207.8C194.652 207.8 194.584 207.785 194.521 207.756C194.431 207.717 194.355 207.652 194.302 207.57C194.248 207.488 194.22 207.392 194.221 207.294L194.621 171.238C194.622 171.138 194.653 171.041 194.709 170.959C194.766 170.877 194.845 170.814 194.938 170.777C195.031 170.741 195.132 170.733 195.23 170.755C195.327 170.776 195.416 170.827 195.484 170.899L220.261 197.099C220.329 197.17 220.374 197.26 220.391 197.357C220.408 197.454 220.396 197.554 220.356 197.644C220.32 197.737 220.255 197.816 220.171 197.87C220.087 197.924 219.989 197.95 219.889 197.944L205.92 197.695L195.057 207.671C194.965 207.754 194.845 207.8 194.721 207.8ZM195.609 172.485L195.233 206.15L205.393 196.82C205.489 196.736 205.612 196.689 205.74 196.689L218.719 196.92L195.609 172.485Z" fill="white"/>
<path d="M239.935 171.238L239.533 207.295L250.544 197.183L264.712 197.436L239.935 171.238Z" fill="white"/>
<path d="M239.533 207.8C239.464 207.8 239.396 207.785 239.333 207.756C239.243 207.717 239.167 207.652 239.114 207.57C239.06 207.488 239.032 207.392 239.033 207.294L239.433 171.238C239.434 171.138 239.465 171.041 239.521 170.959C239.578 170.877 239.657 170.814 239.75 170.777C239.843 170.741 239.944 170.733 240.042 170.755C240.139 170.776 240.227 170.827 240.296 170.899L265.074 197.099C265.142 197.171 265.186 197.26 265.203 197.357C265.22 197.454 265.208 197.554 265.168 197.644C265.133 197.737 265.068 197.817 264.984 197.871C264.901 197.925 264.802 197.951 264.702 197.944L250.732 197.695L239.87 207.671C239.777 207.754 239.657 207.8 239.533 207.8ZM240.421 172.485L240.046 206.15L250.205 196.82C250.302 196.737 250.425 196.691 250.552 196.689L263.531 196.92L240.421 172.485Z" fill="#292A2E"/>
<path d="M195.674 285.213L193.653 311.468L199.979 315.035L213.816 309.552L214.493 302.177L195.674 285.213Z" fill="#292A2E"/>
<path d="M199.979 315.535C199.893 315.535 199.808 315.513 199.733 315.47L193.407 311.904C193.324 311.857 193.256 311.788 193.211 311.704C193.167 311.62 193.147 311.525 193.154 311.43L195.176 285.174C195.183 285.081 195.216 284.992 195.272 284.917C195.327 284.841 195.402 284.783 195.489 284.748C195.576 284.714 195.67 284.704 195.762 284.721C195.854 284.737 195.94 284.779 196.009 284.841L214.828 301.805C214.886 301.857 214.931 301.922 214.959 301.995C214.987 302.067 214.998 302.146 214.991 302.223L214.315 309.598C214.307 309.69 214.273 309.778 214.217 309.852C214.162 309.926 214.087 309.983 214.001 310.017L200.163 315.5C200.104 315.523 200.042 315.535 199.979 315.535ZM194.179 311.189L200.019 314.482L213.35 309.2L213.975 302.38L196.1 286.265L194.179 311.189Z" fill="white"/>
<path d="M201.716 300.982C201.616 300.982 201.518 300.952 201.435 300.896C201.352 300.839 201.288 300.759 201.251 300.666L195.21 285.4C195.183 285.339 195.168 285.272 195.167 285.205C195.166 285.138 195.179 285.071 195.205 285.008C195.23 284.946 195.268 284.89 195.316 284.842C195.364 284.795 195.421 284.758 195.483 284.733C195.546 284.708 195.613 284.696 195.68 284.698C195.747 284.7 195.814 284.715 195.875 284.743C195.936 284.771 195.991 284.811 196.036 284.861C196.082 284.91 196.117 284.969 196.139 285.032L202.181 300.301C202.211 300.377 202.222 300.459 202.213 300.54C202.204 300.621 202.175 300.699 202.13 300.766C202.084 300.834 202.022 300.889 201.95 300.927C201.878 300.965 201.798 300.985 201.716 300.985V300.982Z" fill="white"/>
<path d="M202.639 306.151C204.496 306.151 206.001 304.646 206.001 302.789C206.001 300.932 204.496 299.427 202.639 299.427C200.782 299.427 199.277 300.932 199.277 302.789C199.277 304.646 200.782 306.151 202.639 306.151Z" fill="#292A2E"/>
<path d="M202.639 306.651C201.875 306.651 201.128 306.425 200.493 306.001C199.858 305.576 199.363 304.973 199.07 304.268C198.778 303.562 198.701 302.786 198.85 302.036C198.999 301.287 199.367 300.599 199.907 300.059C200.447 299.518 201.135 299.151 201.884 299.001C202.633 298.852 203.41 298.929 204.116 299.221C204.821 299.513 205.425 300.008 205.849 300.643C206.273 301.279 206.5 302.025 206.5 302.789C206.499 303.813 206.092 304.794 205.368 305.518C204.644 306.242 203.663 306.65 202.639 306.651ZM202.639 299.928C202.073 299.928 201.519 300.096 201.049 300.41C200.578 300.724 200.211 301.171 199.994 301.694C199.777 302.217 199.721 302.793 199.831 303.348C199.941 303.904 200.214 304.414 200.614 304.814C201.015 305.214 201.525 305.487 202.08 305.597C202.635 305.708 203.211 305.651 203.734 305.434C204.257 305.217 204.704 304.85 205.018 304.38C205.332 303.909 205.5 303.355 205.5 302.789C205.499 302.031 205.197 301.304 204.661 300.767C204.125 300.231 203.397 299.929 202.639 299.928Z" fill="white"/>
<path d="M196.706 315.96L216.506 308.114C216.853 307.977 217.239 307.98 217.583 308.123C217.928 308.266 218.202 308.538 218.349 308.881L219.788 312.238C219.864 312.415 219.903 312.605 219.904 312.798C219.904 312.99 219.866 313.181 219.791 313.358C219.717 313.535 219.607 313.696 219.469 313.83C219.331 313.964 219.167 314.069 218.988 314.138L199.12 321.864C198.773 321.999 198.387 321.994 198.044 321.849C197.701 321.704 197.428 321.431 197.283 321.088L195.913 317.85C195.838 317.674 195.8 317.485 195.8 317.294C195.799 317.103 195.837 316.914 195.911 316.738C195.985 316.562 196.093 316.402 196.23 316.269C196.366 316.135 196.528 316.03 196.706 315.96Z" fill="white"/>
<path d="M243.218 289.149L241.311 313.913L247.278 317.277L260.33 312.105L260.968 305.15L243.218 289.149Z" fill="#292A2E"/>
<path d="M247.278 317.777C247.192 317.777 247.107 317.755 247.032 317.712L241.066 314.349C240.983 314.302 240.915 314.233 240.87 314.149C240.826 314.065 240.806 313.97 240.813 313.875L242.719 289.11C242.726 289.017 242.759 288.927 242.815 288.852C242.87 288.777 242.945 288.718 243.032 288.683C243.119 288.649 243.214 288.639 243.306 288.656C243.398 288.672 243.484 288.714 243.553 288.777L261.303 304.777C261.361 304.829 261.405 304.894 261.434 304.966C261.462 305.039 261.473 305.117 261.466 305.194L260.828 312.15C260.82 312.242 260.786 312.33 260.73 312.404C260.675 312.478 260.6 312.535 260.514 312.569L247.462 317.741C247.403 317.764 247.341 317.777 247.278 317.777ZM241.834 313.634L247.316 316.724L259.86 311.754L260.447 305.354L243.638 290.2L241.834 313.634Z" fill="white"/>
<path d="M248.916 304.051C248.816 304.051 248.718 304.021 248.635 303.965C248.552 303.908 248.488 303.828 248.451 303.735L242.751 289.335C242.702 289.212 242.704 289.074 242.757 288.952C242.81 288.831 242.909 288.735 243.032 288.686C243.155 288.637 243.293 288.639 243.415 288.692C243.536 288.745 243.632 288.844 243.681 288.967L249.381 303.367C249.405 303.428 249.417 303.493 249.416 303.559C249.415 303.625 249.401 303.689 249.375 303.75C249.349 303.81 249.311 303.864 249.264 303.91C249.217 303.956 249.161 303.992 249.1 304.016C249.041 304.039 248.979 304.051 248.916 304.051Z" fill="white"/>
<path d="M249.787 308.898C251.538 308.898 252.958 307.478 252.958 305.727C252.958 303.976 251.538 302.556 249.787 302.556C248.036 302.556 246.616 303.976 246.616 305.727C246.616 307.478 248.036 308.898 249.787 308.898Z" fill="#292A2E"/>
<path d="M249.787 309.4C249.061 309.4 248.351 309.185 247.747 308.781C247.144 308.378 246.673 307.805 246.395 307.134C246.118 306.463 246.045 305.725 246.187 305.013C246.328 304.301 246.678 303.647 247.191 303.133C247.705 302.62 248.359 302.27 249.071 302.129C249.783 301.987 250.521 302.06 251.192 302.338C251.863 302.615 252.436 303.086 252.839 303.69C253.243 304.293 253.458 305.003 253.458 305.729C253.457 306.702 253.07 307.635 252.382 308.324C251.693 309.012 250.76 309.399 249.787 309.4ZM249.787 303.058C249.259 303.058 248.742 303.215 248.303 303.508C247.864 303.802 247.521 304.219 247.319 304.707C247.117 305.195 247.064 305.732 247.167 306.25C247.27 306.768 247.525 307.244 247.898 307.618C248.272 307.991 248.748 308.246 249.266 308.349C249.784 308.452 250.321 308.399 250.809 308.197C251.297 307.995 251.714 307.652 252.008 307.213C252.301 306.774 252.458 306.257 252.458 305.729C252.458 305.021 252.176 304.341 251.675 303.84C251.175 303.339 250.495 303.057 249.787 303.056V303.058Z" fill="white"/>
<path d="M244.191 318.15L262.865 310.75C263.192 310.621 263.557 310.624 263.882 310.759C264.206 310.894 264.465 311.151 264.604 311.474L265.961 314.641C266.032 314.808 266.069 314.987 266.07 315.168C266.071 315.349 266.035 315.528 265.965 315.695C265.895 315.862 265.791 316.013 265.662 316.14C265.532 316.266 265.378 316.365 265.209 316.43L246.47 323.718C246.143 323.846 245.779 323.84 245.455 323.704C245.131 323.567 244.874 323.31 244.737 322.986L243.445 319.932C243.375 319.766 243.338 319.588 243.338 319.408C243.338 319.228 243.373 319.05 243.443 318.884C243.512 318.718 243.614 318.567 243.743 318.441C243.871 318.315 244.024 318.216 244.191 318.15Z" fill="white"/>
<path d="M256.125 291.558C255.992 291.558 255.865 291.505 255.771 291.412C255.678 291.318 255.625 291.191 255.625 291.058V281.41C255.625 281.277 255.678 281.15 255.771 281.056C255.865 280.963 255.992 280.91 256.125 280.91C256.258 280.91 256.385 280.963 256.479 281.056C256.572 281.15 256.625 281.277 256.625 281.41V291.058C256.625 291.191 256.572 291.318 256.479 291.412C256.385 291.505 256.258 291.558 256.125 291.558Z" fill="white"/>
<path d="M260.949 286.734H251.3C251.167 286.734 251.04 286.681 250.946 286.588C250.853 286.494 250.8 286.367 250.8 286.234C250.8 286.101 250.853 285.974 250.946 285.88C251.04 285.787 251.167 285.734 251.3 285.734H260.948C261.081 285.734 261.208 285.787 261.302 285.88C261.395 285.974 261.448 286.101 261.448 286.234C261.448 286.367 261.395 286.494 261.302 286.588C261.208 286.681 261.081 286.734 260.948 286.734H260.949Z" fill="white"/>
<path d="M196.038 375.935C195.38 375.936 194.733 375.764 194.163 375.435C193.296 374.936 192.662 374.113 192.402 373.147C192.142 372.18 192.276 371.15 192.775 370.283L202.9 352.694C202.966 352.579 203.075 352.495 203.203 352.461C203.331 352.426 203.467 352.443 203.582 352.509L209.255 355.774C209.369 355.84 209.452 355.948 209.488 356.074C209.522 356.202 209.504 356.338 209.438 356.453L199.315 374.041C198.984 374.618 198.507 375.096 197.931 375.429C197.356 375.761 196.703 375.936 196.038 375.935ZM194.662 374.566C195.299 374.932 196.056 375.03 196.765 374.839C197.475 374.648 198.08 374.183 198.447 373.546L208.321 356.392L203.516 353.626L193.642 370.78C193.275 371.418 193.177 372.175 193.368 372.885C193.559 373.595 194.025 374.199 194.662 374.566Z" fill="white"/>
<path d="M212.29 353.27L204.224 348.628C203.019 347.934 201.48 348.349 200.786 349.554L200.785 349.555C200.092 350.76 200.506 352.299 201.712 352.993L209.777 357.635C210.982 358.329 212.522 357.914 213.216 356.709L213.216 356.708C213.91 355.503 213.495 353.964 212.29 353.27Z" fill="white"/>
<path d="M211.579 345.178C212.217 345.545 212.683 346.15 212.874 346.86C213.066 347.571 212.967 348.328 212.6 348.966L209.407 354.512L204.598 351.744L207.791 346.198C207.972 345.882 208.215 345.605 208.503 345.383C208.792 345.16 209.122 344.997 209.474 344.903C209.826 344.808 210.193 344.784 210.554 344.831C210.915 344.878 211.264 344.996 211.579 345.178Z" fill="white"/>
<path d="M250.992 374.055C249.095 374.06 247.217 373.69 245.464 372.966C243.711 372.241 242.119 371.177 240.779 369.835C240.688 369.741 240.637 369.615 240.638 369.484C240.639 369.352 240.691 369.227 240.784 369.134C240.877 369.041 241.002 368.989 241.133 368.987C241.264 368.986 241.391 369.036 241.485 369.127C243.373 371.008 245.776 372.287 248.39 372.802C251.005 373.317 253.713 373.045 256.173 372.021C258.634 370.997 260.735 369.266 262.211 367.047C263.687 364.829 264.473 362.222 264.468 359.558C264.463 356.893 263.667 354.289 262.183 352.076C260.698 349.864 258.59 348.141 256.126 347.126C253.663 346.111 250.953 345.849 248.34 346.374C245.728 346.899 243.33 348.187 241.449 350.075C241.355 350.166 241.229 350.217 241.097 350.216C240.966 350.215 240.841 350.163 240.748 350.07C240.655 349.977 240.602 349.852 240.601 349.721C240.6 349.59 240.65 349.463 240.741 349.369C242.421 347.683 244.49 346.437 246.766 345.742C249.043 345.047 251.455 344.924 253.79 345.384C256.125 345.844 258.311 346.872 260.153 348.379C261.996 349.885 263.438 351.823 264.353 354.02C265.268 356.217 265.627 358.605 265.398 360.974C265.17 363.343 264.36 365.619 263.042 367.6C261.723 369.582 259.936 371.207 257.84 372.333C255.743 373.459 253.401 374.051 251.021 374.055H250.992Z" fill="white"/>
<path d="M246.58 351.5C246.55 351.5 246.52 351.497 246.491 351.492L240.466 350.411C240.4 350.399 240.338 350.374 240.282 350.338C240.226 350.301 240.178 350.254 240.141 350.199C240.104 350.143 240.078 350.081 240.065 350.016C240.052 349.951 240.053 349.883 240.066 349.818L241.229 344.154C241.242 344.09 241.268 344.029 241.305 343.974C241.341 343.92 241.388 343.873 241.443 343.837C241.498 343.801 241.559 343.776 241.624 343.763C241.688 343.751 241.755 343.751 241.819 343.764C241.883 343.777 241.944 343.803 241.999 343.84C242.053 343.876 242.1 343.923 242.136 343.978C242.172 344.033 242.197 344.094 242.21 344.159C242.222 344.223 242.222 344.29 242.209 344.354L241.149 349.516L246.669 350.507C246.792 350.529 246.902 350.597 246.977 350.696C247.053 350.795 247.089 350.919 247.078 351.043C247.067 351.167 247.01 351.283 246.918 351.367C246.826 351.452 246.706 351.499 246.581 351.499L246.58 351.5Z" fill="white"/>
<path d="M260.193 423.745H236.118C235.985 423.745 235.858 423.692 235.764 423.599C235.671 423.505 235.618 423.378 235.618 423.245V399.171C235.618 399.038 235.671 398.911 235.764 398.817C235.858 398.724 235.985 398.671 236.118 398.671H260.193C260.326 398.671 260.453 398.724 260.547 398.817C260.64 398.911 260.693 399.038 260.693 399.171V423.245C260.693 423.378 260.64 423.505 260.547 423.599C260.453 423.692 260.326 423.745 260.193 423.745ZM236.618 422.745H259.693V399.671H236.618V422.745Z" fill="white"/>
<path d="M261.821 407.831H248.855C245.835 407.831 243.386 410.28 243.386 413.3V426.266C243.386 429.286 245.835 431.735 248.855 431.735H261.821C264.841 431.735 267.29 429.286 267.29 426.266V413.3C267.29 410.28 264.841 407.831 261.821 407.831Z" fill="#292A2E"/>
<path d="M261.822 432.234H248.855C247.273 432.232 245.755 431.603 244.636 430.484C243.517 429.366 242.888 427.848 242.886 426.266V413.3C242.888 411.718 243.517 410.2 244.636 409.081C245.755 407.962 247.272 407.333 248.855 407.331H261.822C263.404 407.333 264.921 407.962 266.04 409.081C267.159 410.2 267.788 411.718 267.79 413.3V426.266C267.788 427.848 267.159 429.365 266.04 430.484C264.921 431.603 263.404 432.232 261.822 432.234ZM248.855 408.334C247.538 408.335 246.274 408.859 245.343 409.791C244.411 410.723 243.887 411.986 243.886 413.303V426.269C243.888 427.586 244.412 428.849 245.343 429.781C246.275 430.712 247.538 431.236 248.855 431.237H261.822C263.139 431.236 264.402 430.712 265.333 429.781C266.265 428.849 266.789 427.586 266.79 426.269V413.3C266.789 411.983 266.265 410.72 265.334 409.788C264.402 408.856 263.139 408.332 261.822 408.331L248.855 408.334Z" fill="white"/>
<path d="M211.342 412.317C211.342 406.646 206.744 402.048 201.073 402.048C195.402 402.048 190.804 406.646 190.804 412.317C190.804 417.988 195.402 422.586 201.073 422.586C206.744 422.586 211.342 417.988 211.342 412.317Z" fill="#292A2E"/>
<path d="M201.073 423.086C198.943 423.086 196.861 422.454 195.09 421.271C193.319 420.088 191.939 418.406 191.124 416.438C190.309 414.47 190.095 412.305 190.511 410.216C190.926 408.127 191.952 406.208 193.458 404.702C194.964 403.196 196.883 402.17 198.972 401.755C201.061 401.339 203.226 401.553 205.194 402.368C207.162 403.183 208.844 404.563 210.027 406.334C211.21 408.105 211.842 410.187 211.842 412.317C211.839 415.172 210.703 417.909 208.684 419.928C206.665 421.947 203.928 423.083 201.073 423.086ZM201.073 402.548C199.141 402.548 197.252 403.121 195.646 404.194C194.039 405.268 192.787 406.793 192.048 408.579C191.308 410.364 191.115 412.328 191.492 414.223C191.869 416.118 192.799 417.858 194.165 419.225C195.532 420.591 197.272 421.521 199.167 421.898C201.062 422.275 203.026 422.082 204.811 421.342C206.597 420.603 208.122 419.351 209.196 417.744C210.269 416.138 210.842 414.249 210.842 412.317C210.839 409.727 209.809 407.244 207.978 405.412C206.146 403.581 203.663 402.551 201.073 402.548Z" fill="white"/>
<path d="M206.43 421.075L205.568 421.582L212.433 433.266L213.296 432.759L206.43 421.075Z" fill="white"/>
<path d="M266.445 489.327H239.616V462.5H266.445V489.327ZM240.616 488.327H265.445V463.5H240.616V488.327Z" fill="white"/>
<path d="M240.116 463.5C239.983 463.5 239.856 463.447 239.763 463.354C239.669 463.26 239.616 463.133 239.616 463V455.174C239.616 455.041 239.669 454.914 239.763 454.82C239.856 454.727 239.983 454.674 240.116 454.674C240.249 454.674 240.376 454.727 240.47 454.82C240.563 454.914 240.616 455.041 240.616 455.174V463C240.616 463.133 240.563 463.26 240.47 463.354C240.376 463.447 240.249 463.5 240.116 463.5Z" fill="white"/>
<path d="M240.031 463.5H232.205C232.072 463.5 231.945 463.447 231.852 463.354C231.758 463.26 231.705 463.133 231.705 463C231.705 462.867 231.758 462.74 231.852 462.646C231.945 462.553 232.072 462.5 232.205 462.5H240.031C240.164 462.5 240.291 462.553 240.385 462.646C240.478 462.74 240.531 462.867 240.531 463C240.531 463.133 240.478 463.26 240.385 463.354C240.291 463.447 240.164 463.5 240.031 463.5Z" fill="white"/>
<path d="M200.369 491.108H202.483L209.225 459.424H219.074L219.402 457.775H197.62L197.26 459.424H207.06L200.369 491.108Z" fill="white"/>
<path d="M671.628 620.132L630.312 493.132C629.586 490.9 628.172 488.956 626.274 487.577C624.375 486.197 622.088 485.455 619.741 485.455H451.42C449.665 485.455 447.936 485.87 446.372 486.667C444.809 487.464 443.457 488.619 442.426 490.039C441.394 491.458 440.714 493.102 440.44 494.835C440.166 496.568 440.306 498.342 440.849 500.01L482.165 627.01C482.891 629.242 484.305 631.187 486.204 632.566C488.103 633.945 490.389 634.687 492.736 634.687H661.057C662.812 634.687 664.541 634.272 666.104 633.475C667.668 632.678 669.02 631.523 670.051 630.103C671.082 628.683 671.762 627.04 672.036 625.307C672.311 623.574 672.171 621.801 671.628 620.132Z" fill="#0C0E13"/>
<path d="M750.599 624.389H637.926C635.118 624.389 632.842 626.665 632.842 629.473V629.603C632.842 632.411 635.118 634.687 637.926 634.687H750.599C753.407 634.687 755.683 632.411 755.683 629.603V629.473C755.683 626.665 753.407 624.389 750.599 624.389Z" fill="#0C0E13"/>
<path d="M556.238 583.92C565.988 583.92 573.892 576.016 573.892 566.266C573.892 556.516 565.988 548.612 556.238 548.612C546.488 548.612 538.584 556.516 538.584 566.266C538.584 576.016 546.488 583.92 556.238 583.92Z" fill="white"/>
</g>
<defs>
<clipPath id="clip0_12_50">
<rect width="1021.65" height="637.212" fill="white"/>
</clipPath>
</defs>
</svg>
